<svg xmlns="http://www.w3.org/2000/svg" width="1200" height="720" viewBox="0 0 800 480"><defs><linearGradient id="a" x1="0" x2="1" y1="0" y2="1"><stop stop-color="#f8fcfa"/><stop offset="1" stop-color="#dff3e7"/></linearGradient><pattern id="g" width="30" height="30" patternUnits="userSpaceOnUse"><path d="M30 0H0V30" fill="none" stroke="#0a8c55" stroke-opacity=".08"/></pattern></defs><rect width="800" height="480" rx="36" fill="url(#a)"/><rect width="800" height="480" rx="36" fill="url(#g)"/><circle cx="400" cy="240" r="92" fill="#073b29"/><circle cx="400" cy="240" r="66" fill="#0b6743"/><path d="M363 257c60-19 83-63 51-105 52 16 83 66 64 111-20 48-77 73-134 56-11-3-3-49 19-62z" fill="#1bc77b"/><g fill="#fff"><circle cx="400" cy="80" r="42"/><circle cx="650" cy="240" r="42"/><circle cx="400" cy="400" r="42"/><circle cx="150" cy="240" r="42"/></g><g stroke="#19ae6b" stroke-width="5" fill="none"><path d="M400 122v78"/><path d="M608 240h-118"/><path d="M400 358v-78"/><path d="M192 240h118"/></g><g font-family="Montserrat,Arial" font-size="14" fill="#0b5b3b" text-anchor="middle"><text x="400" y="85">Research</text><text x="650" y="245">Technology</text><text x="400" y="405">Client Support</text><text x="150" y="245">Risk Management</text></g></svg>