<svg xmlns="http://www.w3.org/2000/svg" width="1200" height="720" viewBox="0 0 800 480">
<defs>
  <linearGradient id="bg" x1="0" y1="0" x2="1" y2="1"><stop stop-color="#f7fcf9"/><stop offset="1" stop-color="#dff3e7"/></linearGradient>
  <radialGradient id="glow" cx="80%" cy="15%" r="70%"><stop stop-color="#21c67c" stop-opacity=".25"/><stop offset="1" stop-color="#21c67c" stop-opacity="0"/></radialGradient>
  <pattern id="grid" width="28" height="28" patternUnits="userSpaceOnUse"><path d="M28 0H0V28" fill="none" stroke="#0a8c55" stroke-opacity=".08"/></pattern>
  <filter id="shadow"><feDropShadow dx="0" dy="16" stdDeviation="18" flood-color="#063b27" flood-opacity=".18"/></filter>
</defs>
<rect width="800" height="480" rx="34" fill="url(#bg)"/>
<rect width="800" height="480" rx="34" fill="url(#grid)"/>
<rect width="800" height="480" rx="34" fill="url(#glow)"/>
<g filter="url(#shadow)"><g transform="translate(95 98)"><circle cx="230" cy="124" r="44" fill="#d7efe2"/><path d="M169 354c8-113 22-172 60-188 41 14 56 74 63 188" fill="#0b6f46"/><rect x="390" y="64" width="220" height="320" rx="34" fill="#0a3324"/><rect x="410" y="96" width="180" height="234" rx="20" fill="#f4fbf7"/><rect x="438" y="128" width="124" height="18" rx="9" fill="#cfe9da"/><rect x="438" y="166" width="82" height="18" rx="9" fill="#6dcc9b"/><path d="M438 274l37-50 32 22 47-70" fill="none" stroke="#12ad68" stroke-width="8" stroke-linecap="round"/><circle cx="500" cy="355" r="11" fill="#d5eee0"/><rect x="112" y="357" width="550" height="24" rx="12" fill="#0a3425"/></g></g>
<g transform="translate(36 34)"><rect width="210" height="44" rx="22" fill="#fff" fill-opacity=".88" stroke="#b9dfc9"/><text x="22" y="28" font-family="Montserrat,Arial" font-size="13" fill="#07633d">Demat Handling</text></g>
</svg>