<svg xmlns="http://www.w3.org/2000/svg" width="980" height="640" viewBox="0 0 980 640">
<defs>
  <linearGradient id="g" x1="0" x2="1" y1="0" y2="1">
    <stop offset="0" stop-color="#effaf4"/>
    <stop offset="0.55" stop-color="#ffffff"/>
    <stop offset="1" stop-color="#dff4e7"/>
  </linearGradient>
  <linearGradient id="green" x1="0" x2="1">
    <stop offset="0" stop-color="#0b8f52"/>
    <stop offset="1" stop-color="#064328"/>
  </linearGradient>
  <filter id="shadow" x="-20%" y="-20%" width="140%" height="140%">
    <feDropShadow dx="0" dy="22" stdDeviation="24" flood-color="#064328" flood-opacity=".18"/>
  </filter>
  <pattern id="grid" width="36" height="36" patternUnits="userSpaceOnUse">
    <path d="M 36 0 L 0 0 0 36" fill="none" stroke="#0f7c4d" stroke-opacity=".08" stroke-width="1"/>
  </pattern>
</defs>
<rect width="980" height="640" rx="44" fill="url(#g)"/>
<rect x="0" y="0" width="980" height="640" rx="44" fill="url(#grid)"/>
<path d="M0 498 C 180 410, 315 460, 480 380 S 785 242, 980 310 L 980 640 L 0 640 Z" fill="#0b8f52" opacity=".07"/>
<path d="M26 430 C 210 360, 290 418, 464 325 S 776 196, 930 236" fill="none" stroke="#0b8f52" stroke-opacity=".18" stroke-width="2"/>
<path d="M48 468 C 244 390, 350 438, 542 334 S 815 250, 968 286" fill="none" stroke="#0b8f52" stroke-opacity=".12" stroke-width="2"/>
<g opacity=".38">
  <g transform="translate(110 330)">
    <line x1="0" y1="-42" x2="0" y2="42" stroke="#0b8f52" stroke-width="3"/><rect x="-12" y="-20" width="24" height="48" rx="4" fill="#0b8f52"/>
    <line x1="44" y1="-68" x2="44" y2="30" stroke="#0b8f52" stroke-width="3"/><rect x="32" y="-46" width="24" height="54" rx="4" fill="#fff" stroke="#0b8f52" stroke-width="3"/>
    <line x1="88" y1="-88" x2="88" y2="8" stroke="#0b8f52" stroke-width="3"/><rect x="76" y="-70" width="24" height="54" rx="4" fill="#0b8f52"/>
    <line x1="132" y1="-118" x2="132" y2="-8" stroke="#0b8f52" stroke-width="3"/><rect x="120" y="-96" width="24" height="68" rx="4" fill="#fff" stroke="#0b8f52" stroke-width="3"/>
    <line x1="176" y1="-140" x2="176" y2="-40" stroke="#0b8f52" stroke-width="3"/><rect x="164" y="-124" width="24" height="58" rx="4" fill="#0b8f52"/>
  </g>
</g>
<g filter="url(#shadow)" transform="translate(462 92)">
  <rect x="0" y="0" width="420" height="330" rx="34" fill="#07140e"/>
  <rect x="24" y="24" width="372" height="282" rx="24" fill="#0b1912"/>
  <text x="48" y="66" fill="#e8fff1" font-family="Inter,Arial" font-size="24" font-weight="800">Market Control View</text>
  <text x="48" y="98" fill="#75c89a" font-family="Inter,Arial" font-size="14">TWS Dashboard Preview</text>
  <path d="M48 236 L91 214 L134 226 L177 162 L220 176 L263 108 L306 138 L354 90" fill="none" stroke="#10b56a" stroke-width="6" stroke-linecap="round" stroke-linejoin="round"/>
  <path d="M48 236 L91 214 L134 226 L177 162 L220 176 L263 108 L306 138 L354 90 L354 258 L48 258 Z" fill="#10b56a" opacity=".12"/>
  <circle cx="354" cy="90" r="10" fill="#10b56a"/>
  <rect x="48" y="124" width="122" height="52" rx="16" fill="#fff" opacity=".08"/>
  <text x="64" y="146" fill="#d7efe2" font-family="Inter,Arial" font-size="12">NIFTY 50</text>
  <text x="64" y="168" fill="#20d47b" font-family="Inter,Arial" font-size="20" font-weight="800">+0.62%</text>
  <rect x="186" y="124" width="122" height="52" rx="16" fill="#fff" opacity=".08"/>
  <text x="202" y="146" fill="#d7efe2" font-family="Inter,Arial" font-size="12">SENSEX</text>
  <text x="202" y="168" fill="#20d47b" font-family="Inter,Arial" font-size="20" font-weight="800">+0.55%</text>
</g>
<g transform="translate(545 348)">
  <circle cx="92" cy="92" r="88" fill="#0b8f52" opacity=".10"/>
  <path d="M75 126 C126 103,139 65,111 37 C153 49,176 88,160 124 C146 159,105 176,60 164 C50 160,56 134,75 126Z" fill="url(#green)" opacity=".92" filter="url(#shadow)"/>
  <path d="M73 123 C55 102,44 91,18 92 C43 77,63 85,83 110" fill="none" stroke="#0b5d38" stroke-width="12" stroke-linecap="round"/>
  <path d="M121 38 C128 8,153 -7,177 3 C151 18,141 33,132 54" fill="none" stroke="#0b5d38" stroke-width="11" stroke-linecap="round"/>
  <path d="M142 54 C172 36,199 42,213 66 C183 59,166 62,146 77" fill="none" stroke="#0b5d38" stroke-width="11" stroke-linecap="round"/>
  <circle cx="119" cy="84" r="5" fill="#f4fff8"/>
</g>
<g transform="translate(74 94)">
  <rect x="0" y="0" width="292" height="156" rx="30" fill="#fff" filter="url(#shadow)"/>
  <text x="28" y="42" fill="#07140e" font-family="Inter,Arial" font-size="18" font-weight="800">Structured Support</text>
  <text x="28" y="72" fill="#64746b" font-family="Inter,Arial" font-size="13">Research · Risk · Discipline</text>
  <rect x="28" y="102" width="220" height="12" rx="6" fill="#e9f5ee"/>
  <rect x="28" y="102" width="152" height="12" rx="6" fill="url(#green)"/>
</g>
</svg>