<svg xmlns="http://www.w3.org/2000/svg" width="1200" height="720" viewBox="0 0 800 480">
<defs>
  <linearGradient id="bg" x1="0" y1="0" x2="1" y2="1"><stop stop-color="#f7fcf9"/><stop offset="1" stop-color="#dff3e7"/></linearGradient>
  <radialGradient id="glow" cx="80%" cy="15%" r="70%"><stop stop-color="#21c67c" stop-opacity=".25"/><stop offset="1" stop-color="#21c67c" stop-opacity="0"/></radialGradient>
  <pattern id="grid" width="28" height="28" patternUnits="userSpaceOnUse"><path d="M28 0H0V28" fill="none" stroke="#0a8c55" stroke-opacity=".08"/></pattern>
  <filter id="shadow"><feDropShadow dx="0" dy="16" stdDeviation="18" flood-color="#063b27" flood-opacity=".18"/></filter>
</defs>
<rect width="800" height="480" rx="34" fill="url(#bg)"/>
<rect width="800" height="480" rx="34" fill="url(#grid)"/>
<rect width="800" height="480" rx="34" fill="url(#glow)"/>
<g filter="url(#shadow)"><g transform="translate(90 105)"><circle cx="190" cy="130" r="44" fill="#d7efe2"/><path d="M132 344c7-108 22-166 57-181 40 14 55 71 62 181" fill="#0d6d46"/><circle cx="590" cy="130" r="44" fill="#e6f7ed"/><path d="M530 344c7-108 22-166 59-181 40 14 55 71 62 181" fill="#123f2f"/><rect x="286" y="105" width="212" height="235" rx="28" fill="#fff" stroke="#a9d7bf" stroke-width="4"/><circle cx="392" cy="208" r="72" fill="#edf9f2"/><path d="M392 136a72 72 0 0 1 67 45l-67 27z" fill="#0faa66"/><path d="M459 181a72 72 0 0 1-9 74l-58-47z" fill="#62d59c"/><path d="M450 255a72 72 0 0 1-122-9l64-38z" fill="#ccebdc"/><rect x="102" y="348" width="586" height="23" rx="12" fill="#0a3425"/></g></g>
<g transform="translate(36 34)"><rect width="210" height="44" rx="22" fill="#fff" fill-opacity=".88" stroke="#b9dfc9"/><text x="22" y="28" font-family="Montserrat,Arial" font-size="13" fill="#07633d">Investment Management</text></g>
</svg>