<svg xmlns="http://www.w3.org/2000/svg" width="1200" height="720" viewBox="0 0 800 480">
<defs>
  <linearGradient id="bg" x1="0" y1="0" x2="1" y2="1"><stop stop-color="#f7fcf9"/><stop offset="1" stop-color="#dff3e7"/></linearGradient>
  <radialGradient id="glow" cx="80%" cy="15%" r="70%"><stop stop-color="#21c67c" stop-opacity=".25"/><stop offset="1" stop-color="#21c67c" stop-opacity="0"/></radialGradient>
  <pattern id="grid" width="28" height="28" patternUnits="userSpaceOnUse"><path d="M28 0H0V28" fill="none" stroke="#0a8c55" stroke-opacity=".08"/></pattern>
  <filter id="shadow"><feDropShadow dx="0" dy="16" stdDeviation="18" flood-color="#063b27" flood-opacity=".18"/></filter>
</defs>
<rect width="800" height="480" rx="34" fill="url(#bg)"/>
<rect width="800" height="480" rx="34" fill="url(#grid)"/>
<rect width="800" height="480" rx="34" fill="url(#glow)"/>
<g filter="url(#shadow)"><g transform="translate(95 112)"><circle cx="225" cy="115" r="44" fill="#d6efe2"/><path d="M165 335c8-108 18-164 60-176 43 9 56 68 61 176" fill="#0d6c45"/><circle cx="520" cy="118" r="44" fill="#e7f7ee"/><path d="M460 335c7-105 21-163 61-176 42 11 54 68 59 176" fill="#123d2d"/><rect x="290" y="184" width="170" height="104" rx="18" fill="#fff" stroke="#9fd4b8" stroke-width="4"/><path d="M317 254l35-34 28 20 42-55" fill="none" stroke="#15b76e" stroke-width="8" stroke-linecap="round"/><rect x="108" y="338" width="520" height="24" rx="12" fill="#0a3324"/></g></g>
<g transform="translate(36 34)"><rect width="210" height="44" rx="22" fill="#fff" fill-opacity=".88" stroke="#b9dfc9"/><text x="22" y="28" font-family="Montserrat,Arial" font-size="13" fill="#07633d">Portfolio Management</text></g>
</svg>