<svg xmlns="http://www.w3.org/2000/svg" width="1200" height="720" viewBox="0 0 800 480">
<defs>
  <linearGradient id="bg" x1="0" y1="0" x2="1" y2="1"><stop stop-color="#f7fcf9"/><stop offset="1" stop-color="#dff3e7"/></linearGradient>
  <radialGradient id="glow" cx="80%" cy="15%" r="70%"><stop stop-color="#21c67c" stop-opacity=".25"/><stop offset="1" stop-color="#21c67c" stop-opacity="0"/></radialGradient>
  <pattern id="grid" width="28" height="28" patternUnits="userSpaceOnUse"><path d="M28 0H0V28" fill="none" stroke="#0a8c55" stroke-opacity=".08"/></pattern>
  <filter id="shadow"><feDropShadow dx="0" dy="16" stdDeviation="18" flood-color="#063b27" flood-opacity=".18"/></filter>
</defs>
<rect width="800" height="480" rx="34" fill="url(#bg)"/>
<rect width="800" height="480" rx="34" fill="url(#grid)"/>
<rect width="800" height="480" rx="34" fill="url(#glow)"/>
<g filter="url(#shadow)"><g transform="translate(85 95)"><circle cx="260" cy="120" r="44" fill="#d7efe2"/><path d="M196 358c8-116 24-176 63-190 42 14 58 75 64 190" fill="#0b6f46"/><rect x="354" y="78" width="330" height="260" rx="28" fill="#fff" stroke="#a9d7bf" stroke-width="4"/><rect x="382" y="110" width="274" height="148" rx="16" fill="#08291d"/><path d="M408 220l48-50 44 24 53-72 65 43" fill="none" stroke="#2ae18d" stroke-width="8"/><rect x="392" y="280" width="112" height="18" rx="9" fill="#d9efe4"/><rect x="516" y="280" width="82" height="18" rx="9" fill="#8fd4b0"/><rect x="116" y="360" width="590" height="24" rx="12" fill="#0a3425"/></g></g>
<g transform="translate(36 34)"><rect width="210" height="44" rx="22" fill="#fff" fill-opacity=".88" stroke="#b9dfc9"/><text x="22" y="28" font-family="Montserrat,Arial" font-size="13" fill="#07633d">Research &amp; Guidance</text></g>
</svg>