<svg xmlns="http://www.w3.org/2000/svg" width="760" height="420" viewBox="0 0 760 420">
<defs><linearGradient id="a" x1="0" x2="1" y1="0" y2="1"><stop stop-color="#f8fff9"/><stop offset="1" stop-color="#dff4e7"/></linearGradient><filter id="s"><feDropShadow dx="0" dy="20" stdDeviation="18" flood-color="#0b5d38" flood-opacity=".16"/></filter></defs>
<rect width="760" height="420" rx="40" fill="url(#a)"/>
<path d="M0 318 C150 230 260 280 406 205 S620 106 760 138 L760 420 L0 420Z" fill="#0b8f52" opacity=".08"/>
<path d="M60 292 C160 250 250 270 340 210 S540 112 700 152" fill="none" stroke="#0b8f52" stroke-opacity=".18" stroke-width="3"/>
<g opacity=".25" stroke="#0b8f52" stroke-width="4">
<line x1="90" y1="250" x2="90" y2="320"/><rect x="78" y="270" width="24" height="38" rx="4" fill="#0b8f52"/>
<line x1="140" y1="220" x2="140" y2="300"/><rect x="128" y="240" width="24" height="42" rx="4" fill="#fff"/>
<line x1="190" y1="180" x2="190" y2="280"/><rect x="178" y="202" width="24" height="52" rx="4" fill="#0b8f52"/>
<line x1="240" y1="160" x2="240" y2="240"/><rect x="228" y="175" width="24" height="48" rx="4" fill="#fff"/>
</g>
<g transform="translate(420 86)" filter="url(#s)">
<rect x="0" y="18" width="220" height="178" rx="24" fill="#0c4b2f"/>
<rect x="22" y="44" width="176" height="126" rx="14" fill="#0a2418"/>
<circle cx="178" cy="108" r="52" fill="#e9fff1" stroke="#0b8f52" stroke-width="8"/>
<circle cx="178" cy="108" r="30" fill="#0b8f52" opacity=".14"/>
<rect x="-100" y="90" width="148" height="170" rx="34" fill="#ffffff"/>
<path d="M-60 168 L-31 198 L6 138" fill="none" stroke="#0b8f52" stroke-width="16" stroke-linecap="round" stroke-linejoin="round"/>
</g>
<g transform="translate(78 68)">
<rect width="250" height="128" rx="24" fill="#fff" filter="url(#s)"/>
<text x="24" y="42" font-family="Inter,Arial" font-size="20" font-weight="800" fill="#07140e">Process first.</text>
<text x="24" y="75" font-family="Inter,Arial" font-size="14" fill="#66736c">Client review, risk clarity,</text>
<text x="24" y="98" font-family="Inter,Arial" font-size="14" fill="#66736c">documentation & support.</text>
</g>
</svg>