<svg xmlns="http://www.w3.org/2000/svg" width="1200" height="720" viewBox="0 0 800 480">
<defs>
  <linearGradient id="bg" x1="0" y1="0" x2="1" y2="1"><stop stop-color="#f7fcf9"/><stop offset="1" stop-color="#dff3e7"/></linearGradient>
  <radialGradient id="glow" cx="80%" cy="15%" r="70%"><stop stop-color="#21c67c" stop-opacity=".25"/><stop offset="1" stop-color="#21c67c" stop-opacity="0"/></radialGradient>
  <pattern id="grid" width="28" height="28" patternUnits="userSpaceOnUse"><path d="M28 0H0V28" fill="none" stroke="#0a8c55" stroke-opacity=".08"/></pattern>
  <filter id="shadow"><feDropShadow dx="0" dy="16" stdDeviation="18" flood-color="#063b27" flood-opacity=".18"/></filter>
</defs>
<rect width="800" height="480" rx="34" fill="url(#bg)"/>
<rect width="800" height="480" rx="34" fill="url(#grid)"/>
<rect width="800" height="480" rx="34" fill="url(#glow)"/>
<g filter="url(#shadow)"><g transform="translate(82 98)"><circle cx="195" cy="128" r="44" fill="#d7efe2"/><path d="M134 354c8-113 22-172 60-188 41 14 56 74 63 188" fill="#0b6f46"/><circle cx="590" cy="128" r="44" fill="#e6f7ed"/><path d="M530 354c8-113 22-172 59-188 40 14 55 74 62 188" fill="#123f2f"/><rect x="280" y="82" width="230" height="248" rx="28" fill="#fff" stroke="#a9d7bf" stroke-width="4"/><rect x="314" y="118" width="162" height="104" rx="16" fill="#08291d"/><path d="M338 194l36-42 31 18 42-54" fill="none" stroke="#28df8b" stroke-width="7"/><rect x="325" y="250" width="140" height="16" rx="8" fill="#d7eee2"/><rect x="342" y="280" width="108" height="16" rx="8" fill="#9fd8ba"/><rect x="102" y="357" width="590" height="24" rx="12" fill="#0a3425"/></g></g>
<g transform="translate(36 34)"><rect width="210" height="44" rx="22" fill="#fff" fill-opacity=".88" stroke="#b9dfc9"/><text x="22" y="28" font-family="Montserrat,Arial" font-size="13" fill="#07633d">Stock Market Education</text></g>
</svg>