<svg xmlns="http://www.w3.org/2000/svg" width="1200" height="720" viewBox="0 0 800 480">
<defs>
  <linearGradient id="bg" x1="0" y1="0" x2="1" y2="1"><stop stop-color="#f7fcf9"/><stop offset="1" stop-color="#dff3e7"/></linearGradient>
  <radialGradient id="glow" cx="80%" cy="15%" r="70%"><stop stop-color="#21c67c" stop-opacity=".25"/><stop offset="1" stop-color="#21c67c" stop-opacity="0"/></radialGradient>
  <pattern id="grid" width="28" height="28" patternUnits="userSpaceOnUse"><path d="M28 0H0V28" fill="none" stroke="#0a8c55" stroke-opacity=".08"/></pattern>
  <filter id="shadow"><feDropShadow dx="0" dy="16" stdDeviation="18" flood-color="#063b27" flood-opacity=".18"/></filter>
</defs>
<rect width="800" height="480" rx="34" fill="url(#bg)"/>
<rect width="800" height="480" rx="34" fill="url(#grid)"/>
<rect width="800" height="480" rx="34" fill="url(#glow)"/>
<g filter="url(#shadow)"><g transform="translate(95 112)"><circle cx="220" cy="120" r="44" fill="#d7efe2"/><path d="M158 338c10-108 25-163 61-178 39 14 53 71 58 178" fill="#0c7047"/><circle cx="525" cy="120" r="44" fill="#e6f7ed"/><path d="M463 338c10-108 23-163 61-178 40 14 54 71 58 178" fill="#113f2f"/><rect x="300" y="180" width="150" height="112" rx="22" fill="#fff" stroke="#acd8c0" stroke-width="4"/><circle cx="374" cy="236" r="35" fill="#edf9f2"/><path d="M374 236l0-26m0 26l24 15" stroke="#10a965" stroke-width="8" stroke-linecap="round"/><rect x="115" y="340" width="515" height="25" rx="12" fill="#0b3526"/></g></g>
<g transform="translate(36 34)"><rect width="210" height="44" rx="22" fill="#fff" fill-opacity=".88" stroke="#b9dfc9"/><text x="22" y="28" font-family="Montserrat,Arial" font-size="13" fill="#07633d">Wealth Management</text></g>
</svg>